<svg width="58" height="199" viewBox="0 0 58 199" fill="none" xmlns="http://www.w3.org/2000/svg">
<rect x="0.5" y="0.921875" width="175" height="197" rx="3.5" fill="white"/>
<rect x="0.5" y="0.921875" width="175" height="197" rx="3.5" stroke="#DBDBDB"/>
<g clip-path="url(#clip0_1_255)">
<path d="M52.3115 98.4688H55.6064C56.3538 98.4688 56.985 98.5827 57.5 98.8105C58.0195 99.0384 58.4137 99.3757 58.6826 99.8223C58.9561 100.264 59.0928 100.809 59.0928 101.456C59.0928 101.912 58.9993 102.329 58.8125 102.707C58.6302 103.081 58.3659 103.4 58.0195 103.664C57.6777 103.924 57.2676 104.118 56.7891 104.245L56.4199 104.389H53.3232L53.3096 103.315H55.6475C56.1214 103.315 56.5156 103.233 56.8301 103.069C57.1445 102.901 57.3815 102.675 57.541 102.393C57.7005 102.11 57.7803 101.798 57.7803 101.456C57.7803 101.073 57.7051 100.738 57.5547 100.451C57.4043 100.164 57.1673 99.943 56.8438 99.7881C56.5247 99.6286 56.1123 99.5488 55.6064 99.5488H53.6309V108.422H52.3115V98.4688ZM58.1289 108.422L55.709 103.91L57.083 103.903L59.5371 108.34V108.422H58.1289ZM60.4121 104.806V104.648C60.4121 104.115 60.4896 103.621 60.6445 103.165C60.7995 102.705 61.0228 102.306 61.3145 101.969C61.6061 101.627 61.9593 101.363 62.374 101.176C62.7887 100.984 63.2536 100.889 63.7686 100.889C64.2881 100.889 64.7552 100.984 65.1699 101.176C65.5892 101.363 65.9447 101.627 66.2363 101.969C66.5326 102.306 66.7581 102.705 66.9131 103.165C67.068 103.621 67.1455 104.115 67.1455 104.648V104.806C67.1455 105.339 67.068 105.833 66.9131 106.289C66.7581 106.745 66.5326 107.144 66.2363 107.485C65.9447 107.823 65.5915 108.087 65.1768 108.278C64.7666 108.465 64.3018 108.559 63.7822 108.559C63.2627 108.559 62.7956 108.465 62.3809 108.278C61.9661 108.087 61.6107 107.823 61.3145 107.485C61.0228 107.144 60.7995 106.745 60.6445 106.289C60.4896 105.833 60.4121 105.339 60.4121 104.806ZM61.6768 104.648V104.806C61.6768 105.175 61.7201 105.523 61.8066 105.852C61.8932 106.175 62.0231 106.462 62.1963 106.713C62.374 106.964 62.5951 107.162 62.8594 107.308C63.1237 107.449 63.4313 107.52 63.7822 107.52C64.1286 107.52 64.4316 107.449 64.6914 107.308C64.9557 107.162 65.1745 106.964 65.3477 106.713C65.5208 106.462 65.6507 106.175 65.7373 105.852C65.8285 105.523 65.874 105.175 65.874 104.806V104.648C65.874 104.284 65.8285 103.94 65.7373 103.616C65.6507 103.288 65.5186 102.999 65.3408 102.748C65.1676 102.493 64.9489 102.292 64.6846 102.146C64.4248 102.001 64.1195 101.928 63.7686 101.928C63.4222 101.928 63.1169 102.001 62.8525 102.146C62.5928 102.292 62.374 102.493 62.1963 102.748C62.0231 102.999 61.8932 103.288 61.8066 103.616C61.7201 103.94 61.6768 104.284 61.6768 104.648ZM69.9961 97.9219V108.422H68.7314V97.9219H69.9961ZM69.6953 104.443L69.1689 104.423C69.1735 103.917 69.2487 103.45 69.3945 103.021C69.5404 102.589 69.7454 102.213 70.0098 101.894C70.2741 101.575 70.5885 101.328 70.9531 101.155C71.3223 100.978 71.7301 100.889 72.1768 100.889C72.5413 100.889 72.8695 100.939 73.1611 101.039C73.4528 101.135 73.7012 101.29 73.9062 101.504C74.1159 101.718 74.2754 101.996 74.3848 102.338C74.4941 102.675 74.5488 103.088 74.5488 103.575V108.422H73.2773V103.562C73.2773 103.174 73.2204 102.864 73.1064 102.632C72.9925 102.395 72.8262 102.224 72.6074 102.119C72.3887 102.01 72.1198 101.955 71.8008 101.955C71.4863 101.955 71.1992 102.021 70.9395 102.153C70.6842 102.285 70.4632 102.468 70.2764 102.7C70.0941 102.933 69.9505 103.199 69.8457 103.5C69.7454 103.796 69.6953 104.111 69.6953 104.443ZM77.8164 101.025V108.422H76.5449V101.025H77.8164ZM76.4492 99.0635C76.4492 98.8584 76.5107 98.6852 76.6338 98.5439C76.7614 98.4027 76.9482 98.332 77.1943 98.332C77.4359 98.332 77.6204 98.4027 77.748 98.5439C77.8802 98.6852 77.9463 98.8584 77.9463 99.0635C77.9463 99.2594 77.8802 99.4281 77.748 99.5693C77.6204 99.7061 77.4359 99.7744 77.1943 99.7744C76.9482 99.7744 76.7614 99.7061 76.6338 99.5693C76.5107 99.4281 76.4492 99.2594 76.4492 99.0635ZM82.9434 101.025V101.996H78.9443V101.025H82.9434ZM80.2979 99.2275H81.5625V106.59C81.5625 106.84 81.6012 107.03 81.6787 107.157C81.7562 107.285 81.8564 107.369 81.9795 107.41C82.1025 107.451 82.2347 107.472 82.376 107.472C82.4808 107.472 82.5902 107.463 82.7041 107.444C82.8226 107.422 82.9115 107.403 82.9707 107.39L82.9775 108.422C82.8773 108.454 82.7451 108.483 82.5811 108.511C82.4215 108.543 82.2279 108.559 82 108.559C81.6901 108.559 81.4053 108.497 81.1455 108.374C80.8857 108.251 80.6784 108.046 80.5234 107.759C80.373 107.467 80.2979 107.075 80.2979 106.583V99.2275ZM95.4463 103.466V107.109C95.3232 107.292 95.1273 107.497 94.8584 107.725C94.5895 107.948 94.2181 108.144 93.7441 108.312C93.2747 108.477 92.6686 108.559 91.9258 108.559C91.3197 108.559 90.7614 108.454 90.251 108.244C89.7451 108.03 89.3053 107.72 88.9316 107.314C88.5625 106.904 88.2754 106.408 88.0703 105.824C87.8698 105.236 87.7695 104.571 87.7695 103.828V103.056C87.7695 102.313 87.8561 101.65 88.0293 101.066C88.207 100.483 88.4668 99.9886 88.8086 99.583C89.1504 99.1729 89.5697 98.863 90.0664 98.6533C90.5632 98.4391 91.1328 98.332 91.7754 98.332C92.5365 98.332 93.1722 98.4642 93.6826 98.7285C94.1976 98.9883 94.5986 99.3483 94.8857 99.8086C95.1774 100.269 95.3643 100.793 95.4463 101.381H94.127C94.0677 101.021 93.9492 100.693 93.7715 100.396C93.5983 100.1 93.3499 99.8633 93.0264 99.6855C92.7028 99.5033 92.2858 99.4121 91.7754 99.4121C91.3151 99.4121 90.9163 99.4964 90.5791 99.665C90.2419 99.8337 89.9639 100.075 89.7451 100.39C89.5264 100.704 89.3623 101.085 89.2529 101.531C89.1481 101.978 89.0957 102.481 89.0957 103.042V103.828C89.0957 104.402 89.1618 104.915 89.2939 105.366C89.4307 105.817 89.6243 106.202 89.875 106.521C90.1257 106.836 90.4242 107.075 90.7705 107.239C91.1214 107.403 91.5088 107.485 91.9326 107.485C92.402 107.485 92.7826 107.447 93.0742 107.369C93.3659 107.287 93.5938 107.191 93.7578 107.082C93.9219 106.968 94.0472 106.861 94.1338 106.761V104.532H91.8301V103.466H95.4463ZM101.968 106.713V101.025H103.239V108.422H102.029L101.968 106.713ZM102.207 105.154L102.733 105.141C102.733 105.633 102.681 106.089 102.576 106.508C102.476 106.923 102.312 107.283 102.084 107.588C101.856 107.893 101.558 108.132 101.188 108.306C100.819 108.474 100.37 108.559 99.8418 108.559C99.4818 108.559 99.1514 108.506 98.8506 108.401C98.5544 108.297 98.2992 108.135 98.085 107.916C97.8708 107.697 97.7044 107.412 97.5859 107.062C97.472 106.711 97.415 106.289 97.415 105.797V101.025H98.6797V105.811C98.6797 106.143 98.7161 106.419 98.7891 106.638C98.8665 106.852 98.9691 107.023 99.0967 107.15C99.2288 107.273 99.3747 107.36 99.5342 107.41C99.6982 107.46 99.8669 107.485 100.04 107.485C100.578 107.485 101.004 107.383 101.318 107.178C101.633 106.968 101.858 106.688 101.995 106.337C102.136 105.981 102.207 105.587 102.207 105.154ZM106.432 102.447V111.266H105.16V101.025H106.322L106.432 102.447ZM111.415 104.662V104.806C111.415 105.343 111.351 105.842 111.224 106.303C111.096 106.758 110.909 107.155 110.663 107.492C110.422 107.829 110.123 108.091 109.768 108.278C109.412 108.465 109.004 108.559 108.544 108.559C108.075 108.559 107.66 108.481 107.3 108.326C106.94 108.171 106.634 107.946 106.384 107.649C106.133 107.353 105.933 106.998 105.782 106.583C105.636 106.168 105.536 105.701 105.481 105.182V104.416C105.536 103.869 105.639 103.379 105.789 102.946C105.939 102.513 106.138 102.144 106.384 101.839C106.634 101.529 106.938 101.294 107.293 101.135C107.648 100.971 108.059 100.889 108.523 100.889C108.988 100.889 109.401 100.98 109.761 101.162C110.121 101.34 110.424 101.595 110.67 101.928C110.916 102.26 111.101 102.659 111.224 103.124C111.351 103.584 111.415 104.097 111.415 104.662ZM110.144 104.806V104.662C110.144 104.293 110.105 103.947 110.027 103.623C109.95 103.295 109.829 103.008 109.665 102.762C109.506 102.511 109.3 102.315 109.05 102.174C108.799 102.028 108.501 101.955 108.154 101.955C107.835 101.955 107.557 102.01 107.32 102.119C107.088 102.229 106.89 102.377 106.726 102.563C106.562 102.746 106.427 102.955 106.322 103.192C106.222 103.425 106.147 103.666 106.097 103.917V105.688C106.188 106.007 106.315 106.307 106.479 106.59C106.644 106.868 106.862 107.093 107.136 107.267C107.409 107.435 107.753 107.52 108.168 107.52C108.51 107.52 108.804 107.449 109.05 107.308C109.3 107.162 109.506 106.964 109.665 106.713C109.829 106.462 109.95 106.175 110.027 105.852C110.105 105.523 110.144 105.175 110.144 104.806ZM116.125 101.025V101.996H112.126V101.025H116.125ZM113.479 99.2275H114.744V106.59C114.744 106.84 114.783 107.03 114.86 107.157C114.938 107.285 115.038 107.369 115.161 107.41C115.284 107.451 115.416 107.472 115.558 107.472C115.662 107.472 115.772 107.463 115.886 107.444C116.004 107.422 116.093 107.403 116.152 107.39L116.159 108.422C116.059 108.454 115.927 108.483 115.763 108.511C115.603 108.543 115.41 108.559 115.182 108.559C114.872 108.559 114.587 108.497 114.327 108.374C114.067 108.251 113.86 108.046 113.705 107.759C113.555 107.467 113.479 107.075 113.479 106.583V99.2275ZM121.97 107.157V103.35C121.97 103.058 121.91 102.805 121.792 102.591C121.678 102.372 121.505 102.203 121.272 102.085C121.04 101.966 120.753 101.907 120.411 101.907C120.092 101.907 119.812 101.962 119.57 102.071C119.333 102.181 119.146 102.324 119.01 102.502C118.878 102.68 118.812 102.871 118.812 103.076H117.547C117.547 102.812 117.615 102.55 117.752 102.29C117.889 102.03 118.085 101.796 118.34 101.586C118.6 101.372 118.91 101.203 119.27 101.08C119.634 100.952 120.04 100.889 120.486 100.889C121.024 100.889 121.498 100.98 121.908 101.162C122.323 101.344 122.646 101.62 122.879 101.989C123.116 102.354 123.234 102.812 123.234 103.363V106.809C123.234 107.055 123.255 107.317 123.296 107.595C123.341 107.873 123.408 108.112 123.494 108.312V108.422H122.175C122.111 108.276 122.061 108.082 122.024 107.841C121.988 107.595 121.97 107.367 121.97 107.157ZM122.188 103.938L122.202 104.826H120.924C120.564 104.826 120.243 104.856 119.96 104.915C119.677 104.97 119.44 105.054 119.249 105.168C119.058 105.282 118.912 105.425 118.812 105.599C118.711 105.767 118.661 105.965 118.661 106.193C118.661 106.426 118.714 106.638 118.818 106.829C118.923 107.021 119.08 107.173 119.29 107.287C119.504 107.396 119.766 107.451 120.076 107.451C120.464 107.451 120.805 107.369 121.102 107.205C121.398 107.041 121.632 106.84 121.806 106.604C121.983 106.367 122.079 106.136 122.093 105.913L122.633 106.521C122.601 106.713 122.514 106.925 122.373 107.157C122.232 107.39 122.043 107.613 121.806 107.827C121.573 108.037 121.295 108.212 120.972 108.354C120.653 108.49 120.293 108.559 119.892 108.559C119.39 108.559 118.951 108.461 118.572 108.265C118.199 108.069 117.907 107.807 117.697 107.479C117.492 107.146 117.39 106.774 117.39 106.364C117.39 105.968 117.467 105.619 117.622 105.318C117.777 105.013 118 104.76 118.292 104.56C118.584 104.354 118.935 104.2 119.345 104.095C119.755 103.99 120.213 103.938 120.719 103.938H122.188Z" fill="#262626"/>
</g>
<g clip-path="url(#clip1_1_255)">
<path d="M28.6708 117.18V126.422H27.4457V117.18H28.6708ZM32.5429 121.337V122.34H28.4042V121.337H32.5429ZM33.1713 117.18V118.183H28.4042V117.18H33.1713ZM34.0028 123.064V122.918C34.0028 122.423 34.0748 121.964 34.2187 121.541C34.3625 121.113 34.5699 120.743 34.8407 120.43C35.1116 120.112 35.4395 119.867 35.8246 119.693C36.2097 119.516 36.6413 119.427 37.1195 119.427C37.602 119.427 38.0357 119.516 38.4208 119.693C38.8101 119.867 39.1402 120.112 39.411 120.43C39.6861 120.743 39.8956 121.113 40.0395 121.541C40.1833 121.964 40.2553 122.423 40.2553 122.918V123.064C40.2553 123.559 40.1833 124.018 40.0395 124.441C39.8956 124.865 39.6861 125.235 39.411 125.552C39.1402 125.865 38.8122 126.111 38.4271 126.289C38.0463 126.462 37.6146 126.549 37.1322 126.549C36.6498 126.549 36.216 126.462 35.831 126.289C35.4459 126.111 35.1158 125.865 34.8407 125.552C34.5699 125.235 34.3625 124.865 34.2187 124.441C34.0748 124.018 34.0028 123.559 34.0028 123.064ZM35.1771 122.918V123.064C35.1771 123.407 35.2173 123.73 35.2978 124.035C35.3782 124.336 35.4988 124.602 35.6596 124.835C35.8246 125.068 36.0298 125.252 36.2753 125.387C36.5207 125.518 36.8064 125.584 37.1322 125.584C37.4538 125.584 37.7353 125.518 37.9765 125.387C38.2219 125.252 38.425 125.068 38.5858 124.835C38.7466 124.602 38.8673 124.336 38.9477 124.035C39.0323 123.73 39.0746 123.407 39.0746 123.064V122.918C39.0746 122.579 39.0323 122.26 38.9477 121.959C38.8673 121.655 38.7445 121.386 38.5795 121.153C38.4187 120.916 38.2156 120.73 37.9701 120.595C37.7289 120.459 37.4454 120.392 37.1195 120.392C36.7979 120.392 36.5144 120.459 36.2689 120.595C36.0277 120.73 35.8246 120.916 35.6596 121.153C35.4988 121.386 35.3782 121.655 35.2978 121.959C35.2173 122.26 35.1771 122.579 35.1771 122.918ZM43.0038 116.672V126.422H41.8231V116.672H43.0038ZM46.1649 116.672V126.422H44.9843V116.672H46.1649ZM47.7392 123.064V122.918C47.7392 122.423 47.8111 121.964 47.955 121.541C48.0989 121.113 48.3062 120.743 48.577 120.43C48.8479 120.112 49.1758 119.867 49.5609 119.693C49.946 119.516 50.3777 119.427 50.8559 119.427C51.3383 119.427 51.772 119.516 52.1571 119.693C52.5465 119.867 52.8765 120.112 53.1474 120.43C53.4224 120.743 53.6319 121.113 53.7758 121.541C53.9197 121.964 53.9916 122.423 53.9916 122.918V123.064C53.9916 123.559 53.9197 124.018 53.7758 124.441C53.6319 124.865 53.4224 125.235 53.1474 125.552C52.8765 125.865 52.5486 126.111 52.1635 126.289C51.7826 126.462 51.351 126.549 50.8686 126.549C50.3861 126.549 49.9524 126.462 49.5673 126.289C49.1822 126.111 48.8521 125.865 48.577 125.552C48.3062 125.235 48.0989 124.865 47.955 124.441C47.8111 124.018 47.7392 123.559 47.7392 123.064ZM48.9135 122.918V123.064C48.9135 123.407 48.9537 123.73 49.0341 124.035C49.1145 124.336 49.2351 124.602 49.3959 124.835C49.5609 125.068 49.7662 125.252 50.0116 125.387C50.2571 125.518 50.5427 125.584 50.8686 125.584C51.1902 125.584 51.4716 125.518 51.7128 125.387C51.9582 125.252 52.1614 125.068 52.3222 124.835C52.483 124.602 52.6036 124.336 52.684 124.035C52.7686 123.73 52.8109 123.407 52.8109 123.064V122.918C52.8109 122.579 52.7686 122.26 52.684 121.959C52.6036 121.655 52.4809 121.386 52.3158 121.153C52.155 120.916 51.9519 120.73 51.7064 120.595C51.4652 120.459 51.1817 120.392 50.8559 120.392C50.5342 120.392 50.2507 120.459 50.0053 120.595C49.7641 120.73 49.5609 120.916 49.3959 121.153C49.2351 121.386 49.1145 121.655 49.0341 121.959C48.9537 122.26 48.9135 122.579 48.9135 122.918ZM57.2035 125.203L58.9682 119.554H59.7426L59.5902 120.677L57.7938 126.422H57.0385L57.2035 125.203ZM56.0165 119.554L57.5209 125.267L57.6288 126.422H56.8354L54.8422 119.554H56.0165ZM61.4311 125.222L62.8656 119.554H64.0336L62.0404 126.422H61.2533L61.4311 125.222ZM59.914 119.554L61.6405 125.108L61.8373 126.422H61.0883L59.2411 120.665L59.0888 119.554H59.914ZM68.0897 126.549C67.6116 126.549 67.1778 126.468 66.7885 126.308C66.4034 126.143 66.0712 125.912 65.7919 125.616C65.5168 125.319 65.3052 124.968 65.1571 124.562C65.009 124.156 64.935 123.711 64.935 123.229V122.962C64.935 122.404 65.0175 121.907 65.1825 121.471C65.3476 121.031 65.5718 120.658 65.8554 120.354C66.1389 120.049 66.4605 119.818 66.8202 119.662C67.1799 119.505 67.5523 119.427 67.9374 119.427C68.4283 119.427 68.8515 119.511 69.2069 119.681C69.5666 119.85 69.8607 120.087 70.0893 120.392C70.3178 120.692 70.487 121.048 70.5971 121.458C70.7071 121.864 70.7621 122.309 70.7621 122.791V123.318H65.6332V122.359H69.5878V122.271C69.5709 121.966 69.5074 121.67 69.3974 121.382C69.2916 121.094 69.1223 120.857 68.8895 120.671C68.6568 120.485 68.3394 120.392 67.9374 120.392C67.6708 120.392 67.4254 120.449 67.2011 120.563C66.9768 120.673 66.7842 120.838 66.6234 121.058C66.4626 121.278 66.3378 121.547 66.2489 121.864C66.1601 122.182 66.1156 122.548 66.1156 122.962V123.229C66.1156 123.555 66.1601 123.862 66.2489 124.149C66.342 124.433 66.4753 124.683 66.6488 124.898C66.8266 125.114 67.0403 125.284 67.2899 125.406C67.5438 125.529 67.8316 125.59 68.1532 125.59C68.5679 125.59 68.9192 125.506 69.2069 125.336C69.4947 125.167 69.7465 124.941 69.9623 124.657L70.6732 125.222C70.5251 125.446 70.3368 125.66 70.1083 125.863C69.8798 126.066 69.5984 126.231 69.2641 126.358C68.934 126.485 68.5425 126.549 68.0897 126.549ZM76.4623 125.089V116.672H77.643V126.422H76.5639L76.4623 125.089ZM71.8412 123.064V122.931C71.8412 122.406 71.9047 121.93 72.0316 121.502C72.1628 121.071 72.3469 120.701 72.5839 120.392C72.8251 120.083 73.1107 119.846 73.4408 119.681C73.7751 119.511 74.1475 119.427 74.558 119.427C74.9896 119.427 75.3663 119.503 75.6879 119.655C76.0137 119.803 76.2888 120.021 76.5131 120.309C76.7416 120.593 76.9215 120.935 77.0526 121.337C77.1838 121.739 77.2748 122.194 77.3256 122.702V123.286C77.279 123.79 77.1881 124.243 77.0526 124.645C76.9215 125.047 76.7416 125.389 76.5131 125.673C76.2888 125.956 76.0137 126.174 75.6879 126.327C75.362 126.475 74.9812 126.549 74.5453 126.549C74.1433 126.549 73.7751 126.462 73.4408 126.289C73.1107 126.115 72.8251 125.872 72.5839 125.559C72.3469 125.245 72.1628 124.877 72.0316 124.454C71.9047 124.027 71.8412 123.563 71.8412 123.064ZM73.0219 122.931V123.064C73.0219 123.407 73.0557 123.728 73.1234 124.029C73.1954 124.329 73.3054 124.594 73.4535 124.822C73.6016 125.051 73.7899 125.231 74.0185 125.362C74.247 125.489 74.5199 125.552 74.8373 125.552C75.2266 125.552 75.5461 125.47 75.7958 125.305C76.0497 125.14 76.2528 124.922 76.4052 124.651C76.5575 124.38 76.676 124.086 76.7606 123.769V122.239C76.7099 122.006 76.6358 121.782 76.5385 121.566C76.4454 121.346 76.3227 121.151 76.1703 120.982C76.0222 120.808 75.8381 120.671 75.6181 120.569C75.4022 120.468 75.1462 120.417 74.85 120.417C74.5284 120.417 74.2512 120.485 74.0185 120.62C73.7899 120.751 73.6016 120.933 73.4535 121.166C73.3054 121.395 73.1954 121.661 73.1234 121.966C73.0557 122.266 73.0219 122.588 73.0219 122.931ZM82.6894 116.672H83.87V125.089L83.7685 126.422H82.6894V116.672ZM88.5102 122.931V123.064C88.5102 123.563 88.4509 124.027 88.3324 124.454C88.2139 124.877 88.0404 125.245 87.8119 125.559C87.5834 125.872 87.3041 126.115 86.974 126.289C86.6439 126.462 86.2652 126.549 85.8378 126.549C85.4019 126.549 85.0189 126.475 84.6889 126.327C84.363 126.174 84.088 125.956 83.8637 125.673C83.6394 125.389 83.4595 125.047 83.3241 124.645C83.1929 124.243 83.102 123.79 83.0512 123.286V122.702C83.102 122.194 83.1929 121.739 83.3241 121.337C83.4595 120.935 83.6394 120.593 83.8637 120.309C84.088 120.021 84.363 119.803 84.6889 119.655C85.0147 119.503 85.3935 119.427 85.8251 119.427C86.2567 119.427 86.6397 119.511 86.974 119.681C87.3083 119.846 87.5876 120.083 87.8119 120.392C88.0404 120.701 88.2139 121.071 88.3324 121.502C88.4509 121.93 88.5102 122.406 88.5102 122.931ZM87.3295 123.064V122.931C87.3295 122.588 87.2978 122.266 87.2343 121.966C87.1708 121.661 87.0692 121.395 86.9296 121.166C86.7899 120.933 86.6059 120.751 86.3773 120.62C86.1488 120.485 85.8674 120.417 85.5331 120.417C85.2369 120.417 84.9787 120.468 84.7587 120.569C84.5429 120.671 84.3588 120.808 84.2064 120.982C84.0541 121.151 83.9293 121.346 83.8319 121.566C83.7388 121.782 83.669 122.006 83.6225 122.239V123.769C83.6902 124.065 83.8002 124.35 83.9525 124.625C84.1091 124.896 84.3165 125.118 84.5746 125.292C84.837 125.465 85.1607 125.552 85.5458 125.552C85.8632 125.552 86.134 125.489 86.3583 125.362C86.5868 125.231 86.7709 125.051 86.9105 124.822C87.0544 124.594 87.1602 124.329 87.2279 124.029C87.2956 123.728 87.3295 123.407 87.3295 123.064ZM91.849 125.711L93.7597 119.554H95.0165L92.2616 127.482C92.1981 127.651 92.1135 127.833 92.0077 128.028C91.9062 128.227 91.775 128.415 91.6142 128.593C91.4534 128.771 91.2587 128.914 91.0302 129.024C90.8059 129.139 90.5372 129.196 90.224 129.196C90.1309 129.196 90.0124 129.183 89.8686 129.158C89.7247 129.132 89.6231 129.111 89.5639 129.094L89.5575 128.142C89.5914 128.146 89.6443 128.151 89.7162 128.155C89.7924 128.163 89.8453 128.167 89.8749 128.167C90.1415 128.167 90.3679 128.132 90.5541 128.06C90.7403 127.992 90.8969 127.875 91.0238 127.71C91.155 127.55 91.2672 127.327 91.3603 127.044L91.849 125.711ZM90.4462 119.554L92.2299 124.886L92.5346 126.124L91.6903 126.555L89.164 119.554H90.4462ZM102.05 125.584C102.329 125.584 102.587 125.527 102.824 125.413C103.061 125.298 103.256 125.142 103.408 124.943C103.56 124.74 103.647 124.509 103.668 124.251H104.786C104.764 124.657 104.627 125.036 104.373 125.387C104.123 125.734 103.795 126.016 103.389 126.231C102.983 126.443 102.536 126.549 102.05 126.549C101.533 126.549 101.083 126.458 100.698 126.276C100.317 126.094 99.9994 125.844 99.7455 125.527C99.4958 125.209 99.3075 124.846 99.1806 124.435C99.0578 124.02 98.9965 123.582 98.9965 123.121V122.854C98.9965 122.393 99.0578 121.957 99.1806 121.547C99.3075 121.132 99.4958 120.766 99.7455 120.449C99.9994 120.131 100.317 119.882 100.698 119.7C101.083 119.518 101.533 119.427 102.05 119.427C102.587 119.427 103.057 119.537 103.459 119.757C103.861 119.973 104.176 120.269 104.405 120.646C104.637 121.018 104.764 121.441 104.786 121.915H103.668C103.647 121.632 103.567 121.375 103.427 121.147C103.292 120.918 103.106 120.736 102.869 120.601C102.636 120.461 102.363 120.392 102.05 120.392C101.69 120.392 101.387 120.464 101.142 120.607C100.901 120.747 100.708 120.938 100.564 121.179C100.425 121.416 100.323 121.68 100.26 121.972C100.2 122.26 100.171 122.554 100.171 122.854V123.121C100.171 123.422 100.2 123.718 100.26 124.01C100.319 124.302 100.418 124.566 100.558 124.803C100.702 125.04 100.894 125.231 101.136 125.375C101.381 125.514 101.686 125.584 102.05 125.584ZM107.28 116.672V126.422H106.106V116.672H107.28ZM107.001 122.728L106.512 122.708C106.516 122.239 106.586 121.805 106.722 121.407C106.857 121.005 107.047 120.656 107.293 120.36C107.538 120.064 107.83 119.835 108.169 119.674C108.512 119.509 108.89 119.427 109.305 119.427C109.644 119.427 109.948 119.473 110.219 119.566C110.49 119.655 110.721 119.799 110.911 119.998C111.106 120.197 111.254 120.455 111.355 120.772C111.457 121.086 111.508 121.469 111.508 121.921V126.422H110.327V121.909C110.327 121.549 110.274 121.261 110.168 121.045C110.063 120.825 109.908 120.667 109.705 120.569C109.502 120.468 109.252 120.417 108.956 120.417C108.664 120.417 108.397 120.478 108.156 120.601C107.919 120.724 107.714 120.893 107.54 121.109C107.371 121.325 107.238 121.572 107.141 121.852C107.047 122.127 107.001 122.419 107.001 122.728ZM114.542 119.554V126.422H113.361V119.554H114.542ZM113.272 117.732C113.272 117.542 113.329 117.381 113.444 117.25C113.562 117.118 113.736 117.053 113.964 117.053C114.189 117.053 114.36 117.118 114.478 117.25C114.601 117.381 114.662 117.542 114.662 117.732C114.662 117.914 114.601 118.07 114.478 118.202C114.36 118.329 114.189 118.392 113.964 118.392C113.736 118.392 113.562 118.329 113.444 118.202C113.329 118.07 113.272 117.914 113.272 117.732ZM117.601 120.633V126.422H116.427V119.554H117.57L117.601 120.633ZM119.747 119.516L119.741 120.607C119.643 120.586 119.55 120.574 119.461 120.569C119.377 120.561 119.279 120.557 119.169 120.557C118.899 120.557 118.659 120.599 118.452 120.684C118.245 120.768 118.069 120.887 117.925 121.039C117.781 121.191 117.667 121.373 117.582 121.585C117.502 121.792 117.449 122.021 117.424 122.271L117.094 122.461C117.094 122.046 117.134 121.657 117.214 121.293C117.299 120.929 117.428 120.607 117.601 120.328C117.775 120.045 117.995 119.825 118.262 119.668C118.532 119.507 118.854 119.427 119.226 119.427C119.311 119.427 119.408 119.437 119.518 119.458C119.628 119.475 119.705 119.494 119.747 119.516ZM124.628 125.248V121.712C124.628 121.441 124.573 121.206 124.463 121.007C124.357 120.804 124.197 120.648 123.981 120.538C123.765 120.428 123.498 120.373 123.181 120.373C122.885 120.373 122.625 120.423 122.4 120.525C122.18 120.626 122.007 120.76 121.88 120.925C121.757 121.09 121.696 121.268 121.696 121.458H120.521C120.521 121.213 120.585 120.969 120.712 120.728C120.839 120.487 121.021 120.269 121.258 120.074C121.499 119.875 121.787 119.719 122.121 119.604C122.46 119.486 122.836 119.427 123.251 119.427C123.75 119.427 124.19 119.511 124.571 119.681C124.956 119.85 125.257 120.106 125.473 120.449C125.693 120.787 125.803 121.213 125.803 121.725V124.924C125.803 125.152 125.822 125.396 125.86 125.654C125.902 125.912 125.963 126.134 126.044 126.32V126.422H124.819C124.76 126.286 124.713 126.107 124.679 125.882C124.645 125.654 124.628 125.442 124.628 125.248ZM124.831 122.258L124.844 123.083H123.657C123.323 123.083 123.024 123.111 122.762 123.166C122.5 123.216 122.28 123.295 122.102 123.4C121.924 123.506 121.789 123.639 121.696 123.8C121.603 123.957 121.556 124.141 121.556 124.353C121.556 124.568 121.605 124.765 121.702 124.943C121.799 125.121 121.945 125.262 122.14 125.368C122.339 125.47 122.582 125.521 122.87 125.521C123.23 125.521 123.547 125.444 123.822 125.292C124.097 125.14 124.315 124.953 124.476 124.733C124.641 124.513 124.73 124.3 124.743 124.092L125.244 124.657C125.214 124.835 125.134 125.032 125.003 125.248C124.872 125.463 124.696 125.671 124.476 125.87C124.26 126.064 124.002 126.227 123.702 126.358C123.405 126.485 123.071 126.549 122.699 126.549C122.233 126.549 121.825 126.458 121.474 126.276C121.127 126.094 120.856 125.851 120.661 125.546C120.471 125.237 120.375 124.892 120.375 124.511C120.375 124.143 120.447 123.819 120.591 123.54C120.735 123.257 120.942 123.022 121.213 122.835C121.484 122.645 121.81 122.501 122.191 122.404C122.572 122.306 122.997 122.258 123.467 122.258H124.831ZM132.1 119.554H133.166V126.276C133.166 126.881 133.043 127.397 132.798 127.825C132.552 128.252 132.21 128.576 131.769 128.796C131.334 129.02 130.83 129.132 130.259 129.132C130.022 129.132 129.742 129.094 129.421 129.018C129.103 128.946 128.79 128.821 128.481 128.644C128.177 128.47 127.921 128.235 127.713 127.939L128.329 127.241C128.617 127.588 128.917 127.829 129.23 127.964C129.548 128.1 129.861 128.167 130.17 128.167C130.542 128.167 130.864 128.098 131.135 127.958C131.405 127.818 131.615 127.611 131.763 127.336C131.915 127.065 131.992 126.731 131.992 126.333V121.064L132.1 119.554ZM127.371 123.064V122.931C127.371 122.406 127.432 121.93 127.555 121.502C127.682 121.071 127.861 120.701 128.094 120.392C128.331 120.083 128.617 119.846 128.951 119.681C129.285 119.511 129.662 119.427 130.081 119.427C130.513 119.427 130.889 119.503 131.211 119.655C131.537 119.803 131.812 120.021 132.036 120.309C132.265 120.593 132.444 120.935 132.576 121.337C132.707 121.739 132.798 122.194 132.849 122.702V123.286C132.802 123.79 132.711 124.243 132.576 124.645C132.444 125.047 132.265 125.389 132.036 125.673C131.812 125.956 131.537 126.174 131.211 126.327C130.885 126.475 130.504 126.549 130.068 126.549C129.658 126.549 129.285 126.462 128.951 126.289C128.621 126.115 128.337 125.872 128.1 125.559C127.864 125.245 127.682 124.877 127.555 124.454C127.432 124.027 127.371 123.563 127.371 123.064ZM128.545 122.931V123.064C128.545 123.407 128.579 123.728 128.646 124.029C128.718 124.329 128.826 124.594 128.97 124.822C129.118 125.051 129.307 125.231 129.535 125.362C129.764 125.489 130.037 125.552 130.354 125.552C130.743 125.552 131.065 125.47 131.319 125.305C131.573 125.14 131.774 124.922 131.922 124.651C132.074 124.38 132.193 124.086 132.277 123.769V122.239C132.231 122.006 132.159 121.782 132.061 121.566C131.968 121.346 131.846 121.151 131.693 120.982C131.545 120.808 131.361 120.671 131.141 120.569C130.921 120.468 130.663 120.417 130.367 120.417C130.045 120.417 129.768 120.485 129.535 120.62C129.307 120.751 129.118 120.933 128.97 121.166C128.826 121.395 128.718 121.661 128.646 121.966C128.579 122.266 128.545 122.588 128.545 122.931ZM139.901 126.422V127.387H134.08V126.422H139.901ZM144.814 124.6C144.814 124.431 144.776 124.274 144.7 124.13C144.628 123.982 144.477 123.849 144.249 123.73C144.025 123.608 143.686 123.502 143.233 123.413C142.852 123.333 142.508 123.237 142.199 123.127C141.894 123.017 141.634 122.884 141.418 122.728C141.206 122.571 141.043 122.387 140.929 122.175C140.815 121.964 140.758 121.716 140.758 121.433C140.758 121.162 140.817 120.906 140.935 120.665C141.058 120.423 141.23 120.21 141.45 120.023C141.674 119.837 141.943 119.691 142.256 119.585C142.569 119.48 142.918 119.427 143.303 119.427C143.853 119.427 144.323 119.524 144.712 119.719C145.102 119.913 145.4 120.174 145.607 120.5C145.815 120.821 145.918 121.179 145.918 121.572H144.744C144.744 121.382 144.687 121.198 144.573 121.02C144.463 120.838 144.3 120.688 144.084 120.569C143.872 120.451 143.612 120.392 143.303 120.392C142.977 120.392 142.713 120.442 142.51 120.544C142.311 120.641 142.165 120.766 142.072 120.918C141.983 121.071 141.938 121.232 141.938 121.401C141.938 121.528 141.96 121.642 142.002 121.744C142.048 121.841 142.129 121.932 142.243 122.017C142.357 122.097 142.518 122.173 142.725 122.245C142.933 122.317 143.197 122.389 143.519 122.461C144.082 122.588 144.545 122.74 144.909 122.918C145.273 123.096 145.544 123.314 145.722 123.572C145.899 123.83 145.988 124.143 145.988 124.511C145.988 124.812 145.925 125.087 145.798 125.336C145.675 125.586 145.495 125.802 145.258 125.984C145.025 126.162 144.746 126.301 144.42 126.403C144.099 126.5 143.737 126.549 143.335 126.549C142.73 126.549 142.218 126.441 141.799 126.225C141.38 126.009 141.062 125.73 140.847 125.387C140.631 125.044 140.523 124.683 140.523 124.302H141.704C141.72 124.623 141.814 124.879 141.983 125.07C142.152 125.256 142.359 125.389 142.605 125.47C142.85 125.546 143.094 125.584 143.335 125.584C143.656 125.584 143.925 125.542 144.141 125.457C144.361 125.372 144.528 125.256 144.642 125.108C144.757 124.96 144.814 124.791 144.814 124.6ZM148.807 119.554V126.422H147.626V119.554H148.807ZM147.537 117.732C147.537 117.542 147.594 117.381 147.708 117.25C147.827 117.118 148 117.053 148.229 117.053C148.453 117.053 148.625 117.118 148.743 117.25C148.866 117.381 148.927 117.542 148.927 117.732C148.927 117.914 148.866 118.07 148.743 118.202C148.625 118.329 148.453 118.392 148.229 118.392C148 118.392 147.827 118.329 147.708 118.202C147.594 118.07 147.537 117.914 147.537 117.732ZM151.866 121.02V126.422H150.692V119.554H151.803L151.866 121.02ZM151.587 122.728L151.098 122.708C151.102 122.239 151.172 121.805 151.308 121.407C151.443 121.005 151.633 120.656 151.879 120.36C152.124 120.064 152.416 119.835 152.755 119.674C153.098 119.509 153.476 119.427 153.891 119.427C154.23 119.427 154.534 119.473 154.805 119.566C155.076 119.655 155.307 119.799 155.497 119.998C155.692 120.197 155.84 120.455 155.941 120.772C156.043 121.086 156.094 121.469 156.094 121.921V126.422H154.913V121.909C154.913 121.549 154.86 121.261 154.754 121.045C154.649 120.825 154.494 120.667 154.291 120.569C154.088 120.468 153.838 120.417 153.542 120.417C153.25 120.417 152.983 120.478 152.742 120.601C152.505 120.724 152.3 120.893 152.126 121.109C151.957 121.325 151.824 121.572 151.726 121.852C151.633 122.127 151.587 122.419 151.587 122.728ZM162.327 119.554H163.393V126.276C163.393 126.881 163.271 127.397 163.025 127.825C162.78 128.252 162.437 128.576 161.997 128.796C161.561 129.02 161.058 129.132 160.486 129.132C160.249 129.132 159.97 129.094 159.648 129.018C159.331 128.946 159.018 128.821 158.709 128.644C158.404 128.47 158.148 128.235 157.941 127.939L158.557 127.241C158.844 127.588 159.145 127.829 159.458 127.964C159.775 128.1 160.088 128.167 160.397 128.167C160.77 128.167 161.091 128.098 161.362 127.958C161.633 127.818 161.843 127.611 161.991 127.336C162.143 127.065 162.219 126.731 162.219 126.333V121.064L162.327 119.554ZM157.598 123.064V122.931C157.598 122.406 157.659 121.93 157.782 121.502C157.909 121.071 158.089 120.701 158.322 120.392C158.559 120.083 158.844 119.846 159.179 119.681C159.513 119.511 159.89 119.427 160.309 119.427C160.74 119.427 161.117 119.503 161.438 119.655C161.764 119.803 162.039 120.021 162.264 120.309C162.492 120.593 162.672 120.935 162.803 121.337C162.934 121.739 163.025 122.194 163.076 122.702V123.286C163.03 123.79 162.939 124.243 162.803 124.645C162.672 125.047 162.492 125.389 162.264 125.673C162.039 125.956 161.764 126.174 161.438 126.327C161.113 126.475 160.732 126.549 160.296 126.549C159.885 126.549 159.513 126.462 159.179 126.289C158.849 126.115 158.565 125.872 158.328 125.559C158.091 125.245 157.909 124.877 157.782 124.454C157.659 124.027 157.598 123.563 157.598 123.064ZM158.772 122.931V123.064C158.772 123.407 158.806 123.728 158.874 124.029C158.946 124.329 159.054 124.594 159.198 124.822C159.346 125.051 159.534 125.231 159.763 125.362C159.991 125.489 160.264 125.552 160.581 125.552C160.971 125.552 161.292 125.47 161.546 125.305C161.8 125.14 162.001 124.922 162.149 124.651C162.302 124.38 162.42 124.086 162.505 123.769V122.239C162.458 122.006 162.386 121.782 162.289 121.566C162.196 121.346 162.073 121.151 161.921 120.982C161.773 120.808 161.589 120.671 161.369 120.569C161.149 120.468 160.89 120.417 160.594 120.417C160.273 120.417 159.995 120.485 159.763 120.62C159.534 120.751 159.346 120.933 159.198 121.166C159.054 121.395 158.946 121.661 158.874 121.966C158.806 122.266 158.772 122.588 158.772 122.931ZM166.453 116.672V126.422H165.272V116.672H166.453ZM172.388 125.248V121.712C172.388 121.441 172.333 121.206 172.223 121.007C172.117 120.804 171.956 120.648 171.741 120.538C171.525 120.428 171.258 120.373 170.941 120.373C170.645 120.373 170.384 120.423 170.16 120.525C169.94 120.626 169.767 120.76 169.64 120.925C169.517 121.09 169.455 121.268 169.455 121.458H168.281C168.281 121.213 168.345 120.969 168.472 120.728C168.599 120.487 168.781 120.269 169.017 120.074C169.259 119.875 169.546 119.719 169.881 119.604C170.219 119.486 170.596 119.427 171.011 119.427C171.51 119.427 171.95 119.511 172.331 119.681C172.716 119.85 173.017 120.106 173.232 120.449C173.452 120.787 173.562 121.213 173.562 121.725V124.924C173.562 125.152 173.581 125.396 173.62 125.654C173.662 125.912 173.723 126.134 173.804 126.32V126.422H172.579C172.519 126.286 172.473 126.107 172.439 125.882C172.405 125.654 172.388 125.442 172.388 125.248ZM172.591 122.258L172.604 123.083H171.417C171.083 123.083 170.784 123.111 170.522 123.166C170.26 123.216 170.039 123.295 169.862 123.4C169.684 123.506 169.549 123.639 169.455 123.8C169.362 123.957 169.316 124.141 169.316 124.353C169.316 124.568 169.364 124.765 169.462 124.943C169.559 125.121 169.705 125.262 169.9 125.368C170.099 125.47 170.342 125.521 170.63 125.521C170.989 125.521 171.307 125.444 171.582 125.292C171.857 125.14 172.075 124.953 172.236 124.733C172.401 124.513 172.49 124.3 172.502 124.092L173.004 124.657C172.974 124.835 172.894 125.032 172.763 125.248C172.631 125.463 172.456 125.671 172.236 125.87C172.02 126.064 171.762 126.227 171.461 126.358C171.165 126.485 170.831 126.549 170.458 126.549C169.993 126.549 169.585 126.458 169.233 126.276C168.886 126.094 168.615 125.851 168.421 125.546C168.23 125.237 168.135 124.892 168.135 124.511C168.135 124.143 168.207 123.819 168.351 123.54C168.495 123.257 168.702 123.022 168.973 122.835C169.244 122.645 169.57 122.501 169.951 122.404C170.331 122.306 170.757 122.258 171.226 122.258H172.591ZM179.142 117.129V126.422H177.968V118.595L175.6 119.458V118.398L178.958 117.129H179.142ZM188.568 117.18V117.84L184.741 126.422H183.503L187.324 118.145H182.322V117.18H188.568Z" fill="#8E8E8E"/>
</g>
<rect x="47.1641" y="145.422" width="81.6719" height="32" rx="8" fill="#0095F6"/>
<defs>
<clipPath id="clip0_1_255">
<rect width="73.6875" height="18" fill="white" transform="translate(51.1562 95.4219)"/>
</clipPath>
<clipPath id="clip1_1_255">
<rect width="134" height="18" fill="white" transform="translate(21 113.422)"/>
</clipPath>
</defs>
</svg>
